<?xml version="1.0" encoding="UTF-8"?><svg id="a" xmlns="http://www.w3.org/2000/svg" viewBox="0 0 55.5 87.28"><path d="m55.17,31.32c-.18-1.85-.47-3.68-.86-5.5-.36-1.67-.83-3.32-1.4-4.93-.6-1.7-1.35-3.35-2.23-4.93-.84-1.47-1.85-2.85-3-4.1-2.76-3.23-6.76-5.13-11-5.23h-.09c-.86-1.56-2.4-2.63-4.16-2.91-.67-2.64-3.35-4.24-5.99-3.57-1.76.44-3.13,1.82-3.57,3.57-1.75.29-3.26,1.37-4.11,2.92-4.25.11-8.25,2.02-11,5.25-1.15,1.25-2.16,2.63-3,4.1-.87,1.57-1.6,3.21-2.19,4.9-.57,1.61-1.03,3.26-1.39,4.93-.39,1.82-.68,3.65-.86,5.5-2.31,22.57,7.86,50.42,26.15,54.68.3.54.74.99,1.29,1.28.54-.29.98-.74,1.27-1.28,18.27-4.26,28.44-32.11,26.14-54.68ZM27.76.89c1.79-.09,3.41,1.05,3.93,2.76-1.62.13-3.07,1.05-3.86,2.47-.01.04-.04.07-.07.09-.03-.02-.06-.05-.07-.09-.79-1.42-2.24-2.34-3.86-2.47.52-1.71,2.14-2.85,3.93-2.76Zm-1.86,4.29c.78.47,1.36,1.23,1.59,2.11-.07.15,0,.32.15.38s.32,0,.38-.15c.03-.07.03-.16,0-.24.23-.88.81-1.64,1.59-2.11,1.94-1.26,4.54-.71,5.8,1.23.07.11.14.23.2.35-.57.1-1.12.24-1.67.42-.88.27-1.69.72-2.38,1.32-1.73,1.59-2.8,3.76-3,6.1-.67,7.31,7.72,6.16,8.14,6.13,1.08,0,1.9-1.71,1.9-4s-.84-4-1.9-4c-.65,0-1.77.52-1.88,2.55-.07,1.42.62,3.32,1.52,3.44.47.06.89-.76,1-1.6s.06-1.87-.59-2c-.2-.05-.41.07-.46.28,0,0,0,0,0,0,.21.42.34.87.39,1.34,0,1.25-1.28.63-1.12-1.36.15-1.76,1.05-1.65,1.09-1.65.5,0,1.26,1,1.26,3,0,1.75-.84,3.63-2.46,2.65-1.36-1-1.89-3.28-1.52-5,.17-.81.87-3,3.13-3,3.26,0,6.3,1.71,8.72,4.9-.27.85-1.95,4.1-7.28,7.21l-.29.15c-1.54-.71-3.23-1.05-4.93-1-1.57.11-3.12.36-4.64.74-.6.2-1.24.2-1.84,0-1.52-.38-3.07-.63-4.64-.74-1.7-.05-3.39.29-4.93,1l-.29-.15c-5.34-3.11-7-6.36-7.28-7.21,2.42-3.19,5.46-4.9,8.72-4.9,2.26,0,3,2.21,3.13,3,.38,1.77-.16,4.05-1.52,5-1.61,1-2.46-.9-2.46-2.65,0-2,.76-3,1.26-3,0,0,.94-.11,1.09,1.65.17,2-1.09,2.61-1.12,1.36.05-.47.18-.92.39-1.34-.05-.2-.25-.33-.46-.28,0,0,0,0,0,0-.65.16-.71,1.3-.59,2s.56,1.66,1,1.6c.9-.12,1.6-2,1.52-3.44-.1-2-1.23-2.55-1.88-2.55-1.06,0-1.9,1.71-1.9,4s.82,4,1.9,4c.42,0,8.81,1.18,8.14-6.13-.2-2.34-1.27-4.51-3-6.1-.69-.6-1.5-1.05-2.38-1.32-.55-.18-1.1-.32-1.67-.42,1.05-2.06,3.57-2.89,5.63-1.84.14.07.28.15.42.24l.02.02Zm-15.8,30.11c-2.02-.18-3.99-.75-5.8-1.67.44-7.31,2.29-13.05,5-16.87.46,1.24,2.55,4.35,7.38,7.14-4.1,2.5-5.92,7.6-6.58,11.4Zm7.08-10.48c1.34-.76,2.84-1.17,4.37-1.21,2.74-.18,4.79.87,6.16.91h.05c1.37,0,3.4-1.09,6.14-.91,1.54.04,3.05.45,4.39,1.21,5.58,3.56,6.37,11.77,6.48,14.46.26,6.52-.95,13.01-3.54,19-3.86,8.51-8.53,14.53-13.14,16.57l-.33.15-.37-.16c-4.61-2-9.27-8.06-13.14-16.57-2.59-5.99-3.8-12.48-3.54-19,.05-2.68.88-10.89,6.47-14.45Zm-7.16,11c-.16,1.1-.27,2.2-.32,3.31-.23,5.16.45,10.32,2,15.25,1.05,3.24,2.44,6.36,4.13,9.32-1.47,1.19-3.21,1.99-5.07,2.34-4.75-9.91-6.97-20.84-6.47-31.82,1.79.89,3.74,1.43,5.73,1.61h0Zm6.14,28.35c3.08,5.3,6.12,8.46,8.45,10.14-.8,1.72-2.02,3.22-3.54,4.36-4-2.7-7.4-7-10.07-12.13,1.88-.36,3.65-1.17,5.15-2.36h.01Zm8.91,10.46c.83.6,1.73,1.1,2.69,1.48.95-.38,1.84-.87,2.67-1.47.82,1.7,2.03,3.19,3.53,4.34-1.13.72-2.33,1.32-3.58,1.78v-.13c-.26-1.32-2-1.59-2.61-1.59s-2.35.27-2.61,1.59v.13c-1.25-.46-2.45-1.06-3.58-1.78,1.49-1.15,2.68-2.64,3.49-4.34h0Zm5.81-.32c2.33-1.67,5.37-4.83,8.45-10.14,1.5,1.19,3.27,2,5.16,2.36-2.67,5.16-6.06,9.43-10.07,12.13-1.52-1.14-2.74-2.63-3.54-4.35Zm8.72-10.61c1.7-2.95,3.1-6.08,4.16-9.32,1.55-4.93,2.23-10.09,2-15.25-.05-1.11-.16-2.21-.32-3.31,2-.17,3.95-.72,5.75-1.61.51,10.98-1.7,21.91-6.43,31.83-1.89-.34-3.66-1.14-5.16-2.34Zm5.78-28.4c-.62-3.8-2.5-8.8-6.62-11.4,4.82-2.83,6.92-5.94,7.39-7.18,2.69,3.82,4.55,9.56,5,16.87-1.8.93-3.75,1.51-5.77,1.71Zm-20.62,49.11c-2.09-.69-4.06-1.68-5.87-2.93-1.15-.78-2.23-1.64-3.25-2.58-.83-.78-1.61-1.6-2.35-2.47-.51-.59-.99-1.19-1.46-1.81-2.23-3.01-4.1-6.27-5.57-9.72-1.42-3.3-2.57-6.71-3.42-10.2-.88-3.56-1.48-7.19-1.79-10.85-.33-3.6-.35-7.23-.07-10.84.16-1.93.39-3.86.74-5.77.34-1.9.82-3.78,1.43-5.61.56-1.68,1.26-3.3,2.1-4.86.85-1.61,1.91-3.1,3.15-4.44,1.16-1.24,2.51-2.28,4-3.1.62-.34,1.27-.63,1.93-.87.34-.12.67-.23,1-.32.32-.12.66-.2,1-.24.84-.16,1.7-.23,2.56-.23,1.36-.02,2.7.32,3.88,1,1.96,1.4,3.19,3.6,3.34,6,.39,4.52-4.21,5.23-5.11,5.22-.14,0-.21-.13.24-.59,1.02-1.49,1.39-3.33,1-5.1-.44-2.07-1.9-3.69-4-3.69-3.13.1-6.08,1.51-8.12,3.89-2,2.3-3.52,4.97-4.47,7.87-1.25,3.68-1.99,7.5-2.2,11.38-.2,3.58-.1,7.17.31,10.73.36,3.58,1,7.14,1.92,10.62.89,3.38,2.07,6.67,3.53,9.85,1.45,3.21,3.29,6.23,5.48,9,2.2,2.83,4.97,5.17,8.13,6.87.71.38,1.45.72,2.21,1-.03,1.07.2,2.14.67,3.1-.32-.08-.63-.18-.94-.31h0Zm3.29,1.55c-.08.17-.28.25-.45.17-.08-.03-.14-.09-.17-.17-1.23-1.42-1.78-3.31-1.51-5.17.12-.64,1.2-.93,1.82-.94s1.7.3,1.82.94c.27,1.86-.28,3.74-1.51,5.16h0Zm26.38-42.11c-.31,3.66-.91,7.29-1.79,10.85-.85,3.49-2,6.9-3.42,10.2-1.47,3.44-3.34,6.69-5.58,9.69-.47.62-.95,1.22-1.46,1.81-.73.88-1.51,1.71-2.34,2.5-1.02.95-2.1,1.83-3.25,2.62-1.8,1.23-3.76,2.2-5.83,2.89-.3.12-.61.21-.93.28.47-.96.7-2.03.67-3.1.76-.28,1.5-.62,2.21-1,3.12-1.7,5.87-4.03,8.05-6.84,2.19-2.77,4.03-5.79,5.48-9,1.45-3.18,2.63-6.47,3.52-9.85.94-3.48,1.61-7.03,2-10.62.38-3.53.46-7.09.23-10.64-.22-3.88-.97-7.71-2.23-11.38-.95-2.9-2.47-5.57-4.47-7.87-2.04-2.38-4.99-3.79-8.12-3.89-2.12,0-3.58,1.62-4,3.69-.39,1.77-.02,3.61,1,5.1.45.46.38.59.24.59-.9,0-5.51-.71-5.11-5.22.15-2.4,1.38-4.6,3.34-6,1.18-.68,2.52-1.02,3.88-1,.86,0,1.72.07,2.56.23.34.04.68.12,1,.24.35.09.68.2,1,.32.66.24,1.31.53,1.93.87,1.49.82,2.84,1.86,4,3.1,1.24,1.34,2.3,2.83,3.15,4.44.84,1.56,1.54,3.18,2.1,4.86.63,1.8,1.13,3.65,1.5,5.52.35,1.91.58,3.84.74,5.77.28,3.61.26,7.23-.06,10.84h0Z" stroke-width="0"/><path d="m36.04,32.82v1.86l.38-.06h.18c.3-.02.59.09.82.28.24.32.32.73.21,1.11,0,0-3.74,16.19-4.45,19.27-.82-3.9-5.26-25.18-5.26-25.18v-.09h-.88v.1l-3.9,24.85-4.38-18.95c0-.09,0-.19,0-.28-.05-.36.07-.73.31-1,.2-.14.45-.2.69-.17h.37v-1.8h-6.26v1.76h.28c.45.07.82.39.95.83l7.61,32.67v.09h1.1v-.1l3.56-23.3,4.53,23.31v.09h1l7.25-32.78c.12-.45.53-.76,1-.75h.43v-1.76h-5.58.04Z" stroke-width="0"/></svg>