<svg width="165" height="38" viewBox="0 0 165 38" fill="none" xmlns="http://www.w3.org/2000/svg">
<path d="M19.8082 12.0158V0.758907H14.3408V12.0158L17.0745 13.5942L19.8082 12.0158Z" fill="#43358B"/>
<path d="M0 12.1953L9.7487 17.8238L12.4824 16.2453V13.0888L2.7337 7.4604L0 12.1953Z" fill="#00A75D"/>
<path d="M18.933 14.6671L24.4004 17.8235L34.1486 12.1951L31.4154 7.46066L18.933 14.6671Z" fill="#5BC5F2"/>
<path d="M0 25.598L2.7337 30.3329L12.4824 24.7045V18.3916L0 25.598Z" fill="#FFCE32"/>
<path d="M14.3409 14.1618V37.0342H19.8083V23.6312L31.4152 30.3327L34.1489 25.5978L14.3409 14.1618Z" fill="#F54C27"/>
<path d="M68.1273 6.58831V20.387C68.1273 27.7273 64.0337 31.6448 57.5398 31.8562C51.0819 32.068 45.6117 28.3624 45.6117 20.387V6.58831H51.0819V20.387C51.0819 24.7979 53.552 27.0923 57.5754 26.9155C61.3161 26.6685 62.6571 24.0925 62.6571 20.387V6.58831H68.1273Z" fill="#3D3D3C"/>
<path d="M154.413 6.02381C150.828 5.906 147.549 6.99759 145.34 9.3546C143.499 7.25979 140.763 6.13449 137.369 6.02381C130.91 5.81195 125.44 9.51753 125.44 17.493V31.2917H130.91V17.493C130.91 13.082 133.381 10.7882 137.404 10.9644C141.138 11.211 142.481 13.7789 142.485 17.4735C142.485 17.4802 142.485 17.4864 142.485 17.493V31.2917H142.486H147.955H147.956V17.493C147.956 17.4882 147.955 17.4835 147.955 17.4787C147.961 13.0773 150.429 10.7882 154.449 10.9644C158.189 11.2114 159.53 13.7874 159.53 17.493V31.2917H165V17.493C165 10.1526 160.907 6.23566 154.413 6.02381Z" fill="#3D3D3C"/>
<path d="M94.0868 28.2566C91.5455 30.7623 88.2631 31.8914 84.5937 31.8914C75.1708 31.8914 71.4301 25.8217 71.3949 19.0813C71.3598 12.6933 75.5237 5.98851 84.5937 5.98851C87.981 5.98851 91.1227 7.29432 93.6631 9.80001L90.2045 13.223C88.7225 11.7761 86.5697 11.1761 84.5937 11.1761C78.9823 11.1761 76.7939 15.5168 76.8291 19.1164C76.8647 22.7161 78.8061 26.8098 84.5937 26.8098C86.5697 26.8098 89.1813 25.9277 90.6634 24.4456L94.0868 28.2566Z" fill="#3D3D3C"/>
<path d="M108.845 10.894C104.151 10.894 100.905 14.4228 100.905 18.9046C100.905 23.5279 104.151 26.8805 108.845 26.8805C113.645 26.8805 116.786 23.4923 116.786 18.9046C116.786 14.3877 113.645 10.894 108.845 10.894ZM108.845 31.8563C100.94 31.8563 95.5057 26.9513 95.5057 18.9046C95.5057 10.8588 100.94 5.95335 108.845 5.95335C116.751 5.95335 122.185 10.8588 122.185 18.9046C122.185 26.9513 116.751 31.8563 108.845 31.8563Z" fill="#3D3D3C"/>
</svg>
